<mxfile host="app.diagrams.net" modified="2024-05-23T12:02:59.132Z" agent="Mozilla/5.0 (Windows NT 10.0; Win64; x64) AppleWebKit/537.36 (KHTML, like Gecko) Chrome/121.0.0.0 Safari/537.36" version="24.4.6" etag="7A97nRnSi9oxggssOqO0" type="device" pages="2">
  <diagram id="YsnUkYIXZKyZ0lEAvtVL" name="Página-1">
    <mxGraphModel dx="2876" dy="2286" grid="1" gridSize="10" guides="1" tooltips="1" connect="1" arrows="1" fold="1" page="1" pageScale="1" pageWidth="827" pageHeight="1169" math="0" shadow="0">
      <root>
        <mxCell id="0" />
        <mxCell id="1" parent="0" />
        <mxCell id="gHt7BngtJJB3sTxaMDb8-4" value="" style="edgeStyle=orthogonalEdgeStyle;rounded=0;orthogonalLoop=1;jettySize=auto;html=1;" edge="1" parent="1" source="gHt7BngtJJB3sTxaMDb8-1" target="gHt7BngtJJB3sTxaMDb8-3">
          <mxGeometry relative="1" as="geometry" />
        </mxCell>
        <mxCell id="gHt7BngtJJB3sTxaMDb8-1" value="inicio" style="ellipse;whiteSpace=wrap;html=1;" vertex="1" parent="1">
          <mxGeometry x="340" width="120" height="80" as="geometry" />
        </mxCell>
        <mxCell id="gHt7BngtJJB3sTxaMDb8-6" value="" style="edgeStyle=orthogonalEdgeStyle;rounded=0;orthogonalLoop=1;jettySize=auto;html=1;" edge="1" parent="1" source="gHt7BngtJJB3sTxaMDb8-3" target="gHt7BngtJJB3sTxaMDb8-5">
          <mxGeometry relative="1" as="geometry" />
        </mxCell>
        <mxCell id="gHt7BngtJJB3sTxaMDb8-8" value="" style="edgeStyle=orthogonalEdgeStyle;rounded=0;orthogonalLoop=1;jettySize=auto;html=1;" edge="1" parent="1" source="gHt7BngtJJB3sTxaMDb8-3" target="gHt7BngtJJB3sTxaMDb8-7">
          <mxGeometry relative="1" as="geometry" />
        </mxCell>
        <mxCell id="gHt7BngtJJB3sTxaMDb8-10" value="" style="edgeStyle=orthogonalEdgeStyle;rounded=0;orthogonalLoop=1;jettySize=auto;html=1;" edge="1" parent="1" source="gHt7BngtJJB3sTxaMDb8-3" target="gHt7BngtJJB3sTxaMDb8-9">
          <mxGeometry relative="1" as="geometry" />
        </mxCell>
        <mxCell id="gHt7BngtJJB3sTxaMDb8-3" value="banco de clientes" style="rounded=1;whiteSpace=wrap;html=1;" vertex="1" parent="1">
          <mxGeometry x="340" y="170" width="120" height="60" as="geometry" />
        </mxCell>
        <mxCell id="gHt7BngtJJB3sTxaMDb8-30" value="" style="edgeStyle=orthogonalEdgeStyle;rounded=0;orthogonalLoop=1;jettySize=auto;html=1;entryX=0.5;entryY=0;entryDx=0;entryDy=0;" edge="1" parent="1" source="gHt7BngtJJB3sTxaMDb8-5" target="gHt7BngtJJB3sTxaMDb8-31">
          <mxGeometry relative="1" as="geometry">
            <mxPoint x="400" y="410" as="targetPoint" />
          </mxGeometry>
        </mxCell>
        <mxCell id="gHt7BngtJJB3sTxaMDb8-5" value="deletar cliente" style="rounded=1;whiteSpace=wrap;html=1;" vertex="1" parent="1">
          <mxGeometry x="340" y="310" width="120" height="60" as="geometry" />
        </mxCell>
        <mxCell id="gHt7BngtJJB3sTxaMDb8-57" value="" style="edgeStyle=orthogonalEdgeStyle;rounded=0;orthogonalLoop=1;jettySize=auto;html=1;" edge="1" parent="1" source="gHt7BngtJJB3sTxaMDb8-7" target="gHt7BngtJJB3sTxaMDb8-56">
          <mxGeometry relative="1" as="geometry" />
        </mxCell>
        <mxCell id="gHt7BngtJJB3sTxaMDb8-7" value="modificar cliente" style="whiteSpace=wrap;html=1;rounded=1;" vertex="1" parent="1">
          <mxGeometry x="660" y="310" width="120" height="60" as="geometry" />
        </mxCell>
        <mxCell id="gHt7BngtJJB3sTxaMDb8-19" value="" style="edgeStyle=orthogonalEdgeStyle;rounded=0;orthogonalLoop=1;jettySize=auto;html=1;" edge="1" parent="1" source="gHt7BngtJJB3sTxaMDb8-9" target="gHt7BngtJJB3sTxaMDb8-18">
          <mxGeometry relative="1" as="geometry" />
        </mxCell>
        <mxCell id="gHt7BngtJJB3sTxaMDb8-21" value="" style="edgeStyle=orthogonalEdgeStyle;rounded=0;orthogonalLoop=1;jettySize=auto;html=1;" edge="1" parent="1" source="gHt7BngtJJB3sTxaMDb8-9" target="gHt7BngtJJB3sTxaMDb8-20">
          <mxGeometry relative="1" as="geometry" />
        </mxCell>
        <mxCell id="gHt7BngtJJB3sTxaMDb8-9" value="criar cliente" style="rounded=1;whiteSpace=wrap;html=1;" vertex="1" parent="1">
          <mxGeometry x="200" y="310" width="120" height="60" as="geometry" />
        </mxCell>
        <mxCell id="gHt7BngtJJB3sTxaMDb8-15" value="banco de dados&lt;div&gt;cliente&lt;/div&gt;" style="whiteSpace=wrap;html=1;rounded=1;" vertex="1" parent="1">
          <mxGeometry x="340" y="170" width="120" height="60" as="geometry" />
        </mxCell>
        <mxCell id="gHt7BngtJJB3sTxaMDb8-17" style="edgeStyle=orthogonalEdgeStyle;rounded=0;orthogonalLoop=1;jettySize=auto;html=1;exitX=1;exitY=1;exitDx=0;exitDy=0;entryX=0.25;entryY=0;entryDx=0;entryDy=0;" edge="1" parent="1" source="gHt7BngtJJB3sTxaMDb8-16" target="gHt7BngtJJB3sTxaMDb8-15">
          <mxGeometry relative="1" as="geometry">
            <Array as="points">
              <mxPoint x="320" y="150" />
              <mxPoint x="370" y="150" />
            </Array>
          </mxGeometry>
        </mxCell>
        <mxCell id="gHt7BngtJJB3sTxaMDb8-16" value="aqui vai ficar os dados dos clientes" style="text;html=1;align=center;verticalAlign=middle;whiteSpace=wrap;rounded=0;" vertex="1" parent="1">
          <mxGeometry x="260" y="110" width="60" height="30" as="geometry" />
        </mxCell>
        <mxCell id="gHt7BngtJJB3sTxaMDb8-61" style="edgeStyle=orthogonalEdgeStyle;rounded=0;orthogonalLoop=1;jettySize=auto;html=1;exitX=0.5;exitY=1;exitDx=0;exitDy=0;" edge="1" parent="1" source="gHt7BngtJJB3sTxaMDb8-18" target="gHt7BngtJJB3sTxaMDb8-59">
          <mxGeometry relative="1" as="geometry" />
        </mxCell>
        <mxCell id="gHt7BngtJJB3sTxaMDb8-18" value="telefone" style="whiteSpace=wrap;html=1;rounded=1;" vertex="1" parent="1">
          <mxGeometry x="70" y="440" width="120" height="60" as="geometry" />
        </mxCell>
        <mxCell id="gHt7BngtJJB3sTxaMDb8-60" value="" style="edgeStyle=orthogonalEdgeStyle;rounded=0;orthogonalLoop=1;jettySize=auto;html=1;" edge="1" parent="1" source="gHt7BngtJJB3sTxaMDb8-20" target="gHt7BngtJJB3sTxaMDb8-59">
          <mxGeometry relative="1" as="geometry" />
        </mxCell>
        <mxCell id="gHt7BngtJJB3sTxaMDb8-20" value="nome" style="whiteSpace=wrap;html=1;rounded=1;" vertex="1" parent="1">
          <mxGeometry x="200" y="440" width="120" height="60" as="geometry" />
        </mxCell>
        <mxCell id="gHt7BngtJJB3sTxaMDb8-34" value="" style="edgeStyle=orthogonalEdgeStyle;rounded=0;orthogonalLoop=1;jettySize=auto;html=1;" edge="1" parent="1" source="gHt7BngtJJB3sTxaMDb8-31" target="gHt7BngtJJB3sTxaMDb8-33">
          <mxGeometry relative="1" as="geometry" />
        </mxCell>
        <mxCell id="gHt7BngtJJB3sTxaMDb8-31" value="selecione um cliente" style="rounded=1;whiteSpace=wrap;html=1;" vertex="1" parent="1">
          <mxGeometry x="340" y="420" width="120" height="60" as="geometry" />
        </mxCell>
        <mxCell id="gHt7BngtJJB3sTxaMDb8-45" style="edgeStyle=orthogonalEdgeStyle;rounded=0;orthogonalLoop=1;jettySize=auto;html=1;exitX=0;exitY=0.5;exitDx=0;exitDy=0;entryX=0.5;entryY=0;entryDx=0;entryDy=0;" edge="1" parent="1" source="gHt7BngtJJB3sTxaMDb8-33" target="gHt7BngtJJB3sTxaMDb8-42">
          <mxGeometry relative="1" as="geometry" />
        </mxCell>
        <mxCell id="gHt7BngtJJB3sTxaMDb8-46" style="edgeStyle=orthogonalEdgeStyle;rounded=0;orthogonalLoop=1;jettySize=auto;html=1;exitX=1;exitY=0.5;exitDx=0;exitDy=0;entryX=0.5;entryY=0;entryDx=0;entryDy=0;" edge="1" parent="1" source="gHt7BngtJJB3sTxaMDb8-33" target="gHt7BngtJJB3sTxaMDb8-40">
          <mxGeometry relative="1" as="geometry" />
        </mxCell>
        <mxCell id="gHt7BngtJJB3sTxaMDb8-33" value="deletar esse cliente?" style="rhombus;whiteSpace=wrap;html=1;rounded=1;" vertex="1" parent="1">
          <mxGeometry x="345" y="510" width="110" height="110" as="geometry" />
        </mxCell>
        <mxCell id="gHt7BngtJJB3sTxaMDb8-48" value="" style="edgeStyle=orthogonalEdgeStyle;rounded=0;orthogonalLoop=1;jettySize=auto;html=1;" edge="1" parent="1" source="gHt7BngtJJB3sTxaMDb8-40" target="gHt7BngtJJB3sTxaMDb8-47">
          <mxGeometry relative="1" as="geometry" />
        </mxCell>
        <mxCell id="gHt7BngtJJB3sTxaMDb8-40" value="sim" style="rounded=1;whiteSpace=wrap;html=1;" vertex="1" parent="1">
          <mxGeometry x="450" y="640" width="120" height="60" as="geometry" />
        </mxCell>
        <mxCell id="gHt7BngtJJB3sTxaMDb8-50" value="" style="edgeStyle=orthogonalEdgeStyle;rounded=0;orthogonalLoop=1;jettySize=auto;html=1;" edge="1" parent="1" source="gHt7BngtJJB3sTxaMDb8-42" target="gHt7BngtJJB3sTxaMDb8-49">
          <mxGeometry relative="1" as="geometry" />
        </mxCell>
        <mxCell id="gHt7BngtJJB3sTxaMDb8-42" value="não" style="rounded=1;whiteSpace=wrap;html=1;" vertex="1" parent="1">
          <mxGeometry x="270" y="640" width="120" height="60" as="geometry" />
        </mxCell>
        <mxCell id="NIxQpuSbD9NqsE56mVhm-2" style="edgeStyle=orthogonalEdgeStyle;rounded=0;orthogonalLoop=1;jettySize=auto;html=1;exitX=1;exitY=0;exitDx=0;exitDy=0;" edge="1" parent="1" source="gHt7BngtJJB3sTxaMDb8-47">
          <mxGeometry relative="1" as="geometry">
            <mxPoint x="430" y="230" as="targetPoint" />
            <Array as="points">
              <mxPoint x="570" y="230" />
            </Array>
          </mxGeometry>
        </mxCell>
        <mxCell id="gHt7BngtJJB3sTxaMDb8-47" value="cliente deletado" style="whiteSpace=wrap;html=1;rounded=1;" vertex="1" parent="1">
          <mxGeometry x="450" y="760" width="120" height="60" as="geometry" />
        </mxCell>
        <mxCell id="NIxQpuSbD9NqsE56mVhm-3" style="edgeStyle=orthogonalEdgeStyle;rounded=0;orthogonalLoop=1;jettySize=auto;html=1;exitX=0;exitY=0;exitDx=0;exitDy=0;entryX=0;entryY=1;entryDx=0;entryDy=0;" edge="1" parent="1" source="gHt7BngtJJB3sTxaMDb8-49" target="gHt7BngtJJB3sTxaMDb8-15">
          <mxGeometry relative="1" as="geometry">
            <Array as="points">
              <mxPoint x="270" y="510" />
              <mxPoint x="330" y="510" />
              <mxPoint x="330" y="230" />
            </Array>
          </mxGeometry>
        </mxCell>
        <mxCell id="gHt7BngtJJB3sTxaMDb8-49" value="cliente não deletado" style="whiteSpace=wrap;html=1;rounded=1;" vertex="1" parent="1">
          <mxGeometry x="270" y="760" width="120" height="60" as="geometry" />
        </mxCell>
        <mxCell id="gHt7BngtJJB3sTxaMDb8-73" value="" style="edgeStyle=orthogonalEdgeStyle;rounded=0;orthogonalLoop=1;jettySize=auto;html=1;" edge="1" parent="1" source="gHt7BngtJJB3sTxaMDb8-56" target="gHt7BngtJJB3sTxaMDb8-72">
          <mxGeometry relative="1" as="geometry" />
        </mxCell>
        <mxCell id="gHt7BngtJJB3sTxaMDb8-56" value="selecione um cliente" style="whiteSpace=wrap;html=1;rounded=1;" vertex="1" parent="1">
          <mxGeometry x="660" y="410" width="120" height="60" as="geometry" />
        </mxCell>
        <mxCell id="gHt7BngtJJB3sTxaMDb8-63" value="" style="edgeStyle=orthogonalEdgeStyle;rounded=0;orthogonalLoop=1;jettySize=auto;html=1;" edge="1" parent="1" source="gHt7BngtJJB3sTxaMDb8-59" target="gHt7BngtJJB3sTxaMDb8-62">
          <mxGeometry relative="1" as="geometry" />
        </mxCell>
        <mxCell id="gHt7BngtJJB3sTxaMDb8-68" value="" style="edgeStyle=orthogonalEdgeStyle;rounded=0;orthogonalLoop=1;jettySize=auto;html=1;" edge="1" parent="1" source="gHt7BngtJJB3sTxaMDb8-59" target="gHt7BngtJJB3sTxaMDb8-67">
          <mxGeometry relative="1" as="geometry" />
        </mxCell>
        <mxCell id="gHt7BngtJJB3sTxaMDb8-59" value="dados&lt;div&gt;validos&lt;/div&gt;" style="rhombus;whiteSpace=wrap;html=1;rounded=1;" vertex="1" parent="1">
          <mxGeometry x="160" y="630" width="80" height="80" as="geometry" />
        </mxCell>
        <mxCell id="gHt7BngtJJB3sTxaMDb8-62" value="mostrar erro" style="whiteSpace=wrap;html=1;rounded=1;" vertex="1" parent="1">
          <mxGeometry y="640" width="120" height="60" as="geometry" />
        </mxCell>
        <mxCell id="gHt7BngtJJB3sTxaMDb8-64" value="não" style="text;html=1;align=center;verticalAlign=middle;whiteSpace=wrap;rounded=0;" vertex="1" parent="1">
          <mxGeometry x="110" y="640" width="60" height="30" as="geometry" />
        </mxCell>
        <mxCell id="gHt7BngtJJB3sTxaMDb8-71" style="edgeStyle=orthogonalEdgeStyle;rounded=0;orthogonalLoop=1;jettySize=auto;html=1;exitX=0;exitY=0.75;exitDx=0;exitDy=0;entryX=0;entryY=0.75;entryDx=0;entryDy=0;" edge="1" parent="1" source="gHt7BngtJJB3sTxaMDb8-67" target="gHt7BngtJJB3sTxaMDb8-15">
          <mxGeometry relative="1" as="geometry">
            <Array as="points">
              <mxPoint x="-10" y="805" />
              <mxPoint x="-10" y="215" />
            </Array>
          </mxGeometry>
        </mxCell>
        <mxCell id="gHt7BngtJJB3sTxaMDb8-67" value="cadastro realizado" style="whiteSpace=wrap;html=1;rounded=1;" vertex="1" parent="1">
          <mxGeometry x="140" y="760" width="120" height="60" as="geometry" />
        </mxCell>
        <mxCell id="gHt7BngtJJB3sTxaMDb8-69" value="sim" style="text;html=1;align=center;verticalAlign=middle;whiteSpace=wrap;rounded=0;" vertex="1" parent="1">
          <mxGeometry x="150" y="720" width="60" height="30" as="geometry" />
        </mxCell>
        <mxCell id="gHt7BngtJJB3sTxaMDb8-88" style="edgeStyle=orthogonalEdgeStyle;rounded=0;orthogonalLoop=1;jettySize=auto;html=1;exitX=1;exitY=0.5;exitDx=0;exitDy=0;entryX=0.5;entryY=0;entryDx=0;entryDy=0;" edge="1" parent="1" source="gHt7BngtJJB3sTxaMDb8-72" target="gHt7BngtJJB3sTxaMDb8-80">
          <mxGeometry relative="1" as="geometry" />
        </mxCell>
        <mxCell id="gHt7BngtJJB3sTxaMDb8-72" value="modificar&lt;div&gt;cliente ?&lt;/div&gt;" style="rhombus;whiteSpace=wrap;html=1;rounded=1;" vertex="1" parent="1">
          <mxGeometry x="670" y="515" width="100" height="100" as="geometry" />
        </mxCell>
        <mxCell id="gHt7BngtJJB3sTxaMDb8-95" value="" style="edgeStyle=orthogonalEdgeStyle;rounded=0;orthogonalLoop=1;jettySize=auto;html=1;" edge="1" parent="1" source="gHt7BngtJJB3sTxaMDb8-80" target="gHt7BngtJJB3sTxaMDb8-94">
          <mxGeometry relative="1" as="geometry" />
        </mxCell>
        <mxCell id="gHt7BngtJJB3sTxaMDb8-80" value="sim" style="rounded=1;whiteSpace=wrap;html=1;" vertex="1" parent="1">
          <mxGeometry x="730" y="640" width="120" height="60" as="geometry" />
        </mxCell>
        <mxCell id="gHt7BngtJJB3sTxaMDb8-92" value="" style="edgeStyle=orthogonalEdgeStyle;rounded=0;orthogonalLoop=1;jettySize=auto;html=1;" edge="1" parent="1" source="gHt7BngtJJB3sTxaMDb8-82" target="gHt7BngtJJB3sTxaMDb8-91">
          <mxGeometry relative="1" as="geometry" />
        </mxCell>
        <mxCell id="gHt7BngtJJB3sTxaMDb8-82" value="não" style="rounded=1;whiteSpace=wrap;html=1;" vertex="1" parent="1">
          <mxGeometry x="590" y="640" width="120" height="60" as="geometry" />
        </mxCell>
        <mxCell id="gHt7BngtJJB3sTxaMDb8-90" style="edgeStyle=orthogonalEdgeStyle;rounded=0;orthogonalLoop=1;jettySize=auto;html=1;exitX=0;exitY=0.5;exitDx=0;exitDy=0;entryX=0.45;entryY=-0.017;entryDx=0;entryDy=0;entryPerimeter=0;" edge="1" parent="1" source="gHt7BngtJJB3sTxaMDb8-72" target="gHt7BngtJJB3sTxaMDb8-82">
          <mxGeometry relative="1" as="geometry" />
        </mxCell>
        <mxCell id="gHt7BngtJJB3sTxaMDb8-93" style="edgeStyle=orthogonalEdgeStyle;rounded=0;orthogonalLoop=1;jettySize=auto;html=1;exitX=0;exitY=0;exitDx=0;exitDy=0;entryX=1;entryY=0.75;entryDx=0;entryDy=0;" edge="1" parent="1" source="gHt7BngtJJB3sTxaMDb8-91" target="gHt7BngtJJB3sTxaMDb8-15">
          <mxGeometry relative="1" as="geometry">
            <Array as="points">
              <mxPoint x="580" y="760" />
              <mxPoint x="580" y="215" />
            </Array>
          </mxGeometry>
        </mxCell>
        <mxCell id="gHt7BngtJJB3sTxaMDb8-91" value="cliente não foi alterado&amp;nbsp;" style="whiteSpace=wrap;html=1;rounded=1;" vertex="1" parent="1">
          <mxGeometry x="590" y="760" width="120" height="60" as="geometry" />
        </mxCell>
        <mxCell id="gHt7BngtJJB3sTxaMDb8-96" style="edgeStyle=orthogonalEdgeStyle;rounded=0;orthogonalLoop=1;jettySize=auto;html=1;exitX=1;exitY=0.25;exitDx=0;exitDy=0;entryX=1;entryY=0.25;entryDx=0;entryDy=0;" edge="1" parent="1" source="gHt7BngtJJB3sTxaMDb8-94" target="gHt7BngtJJB3sTxaMDb8-15">
          <mxGeometry relative="1" as="geometry" />
        </mxCell>
        <mxCell id="gHt7BngtJJB3sTxaMDb8-94" value="&amp;nbsp;cliente foi modificado com sucesso" style="whiteSpace=wrap;html=1;rounded=1;" vertex="1" parent="1">
          <mxGeometry x="730" y="760" width="120" height="60" as="geometry" />
        </mxCell>
        <mxCell id="BLbAD-rNxpiQl6OmIel5-1" value="CLIENTES" style="text;html=1;align=center;verticalAlign=middle;whiteSpace=wrap;rounded=0;" vertex="1" parent="1">
          <mxGeometry x="200" y="-20" width="680" height="230" as="geometry" />
        </mxCell>
      </root>
    </mxGraphModel>
  </diagram>
  <diagram id="cob4E-7mashP0gwnkzWK" name="Página-2">
    <mxGraphModel dx="2261" dy="782" grid="1" gridSize="10" guides="1" tooltips="1" connect="1" arrows="1" fold="1" page="1" pageScale="1" pageWidth="827" pageHeight="1169" math="0" shadow="0">
      <root>
        <mxCell id="0" />
        <mxCell id="1" parent="0" />
        <mxCell id="q2FhE0J3s6sLXgJ5Zwis-4" value="" style="edgeStyle=orthogonalEdgeStyle;rounded=0;orthogonalLoop=1;jettySize=auto;html=1;" edge="1" parent="1" source="q2FhE0J3s6sLXgJ5Zwis-1" target="q2FhE0J3s6sLXgJ5Zwis-3">
          <mxGeometry relative="1" as="geometry" />
        </mxCell>
        <mxCell id="q2FhE0J3s6sLXgJ5Zwis-1" value="inicio" style="ellipse;whiteSpace=wrap;html=1;" vertex="1" parent="1">
          <mxGeometry x="310" width="120" height="80" as="geometry" />
        </mxCell>
        <mxCell id="q2FhE0J3s6sLXgJ5Zwis-11" style="edgeStyle=orthogonalEdgeStyle;rounded=0;orthogonalLoop=1;jettySize=auto;html=1;exitX=0;exitY=0.75;exitDx=0;exitDy=0;entryX=0.75;entryY=0;entryDx=0;entryDy=0;" edge="1" parent="1" source="q2FhE0J3s6sLXgJ5Zwis-3" target="q2FhE0J3s6sLXgJ5Zwis-5">
          <mxGeometry relative="1" as="geometry" />
        </mxCell>
        <mxCell id="Vm5Op388WG7nK8URNqsD-1" style="edgeStyle=orthogonalEdgeStyle;rounded=0;orthogonalLoop=1;jettySize=auto;html=1;exitX=1;exitY=0.75;exitDx=0;exitDy=0;entryX=0.25;entryY=0;entryDx=0;entryDy=0;" edge="1" parent="1" source="q2FhE0J3s6sLXgJ5Zwis-3" target="q2FhE0J3s6sLXgJ5Zwis-8">
          <mxGeometry relative="1" as="geometry" />
        </mxCell>
        <mxCell id="q2FhE0J3s6sLXgJ5Zwis-3" value="selecione o fornecedor" style="rounded=1;whiteSpace=wrap;html=1;" vertex="1" parent="1">
          <mxGeometry x="310" y="120" width="120" height="60" as="geometry" />
        </mxCell>
        <mxCell id="HUoiYBO2rbF4VHzIbusj-5" style="edgeStyle=orthogonalEdgeStyle;rounded=0;orthogonalLoop=1;jettySize=auto;html=1;exitX=0.25;exitY=1;exitDx=0;exitDy=0;entryX=0.25;entryY=0;entryDx=0;entryDy=0;" edge="1" parent="1" source="q2FhE0J3s6sLXgJ5Zwis-5" target="HUoiYBO2rbF4VHzIbusj-4">
          <mxGeometry relative="1" as="geometry">
            <Array as="points">
              <mxPoint x="130" y="300" />
              <mxPoint x="20" y="300" />
            </Array>
          </mxGeometry>
        </mxCell>
        <mxCell id="q2FhE0J3s6sLXgJ5Zwis-5" value="BC corte" style="rounded=1;whiteSpace=wrap;html=1;" vertex="1" parent="1">
          <mxGeometry x="100" y="230" width="120" height="60" as="geometry" />
        </mxCell>
        <mxCell id="q2FhE0J3s6sLXgJ5Zwis-6" value="BC costura" style="rounded=1;whiteSpace=wrap;html=1;" vertex="1" parent="1">
          <mxGeometry x="240" y="230" width="120" height="60" as="geometry" />
        </mxCell>
        <mxCell id="q2FhE0J3s6sLXgJ5Zwis-7" value="BC bordado" style="rounded=1;whiteSpace=wrap;html=1;" vertex="1" parent="1">
          <mxGeometry x="380" y="230" width="120" height="60" as="geometry" />
        </mxCell>
        <mxCell id="q2FhE0J3s6sLXgJ5Zwis-8" value="BC cilc" style="rounded=1;whiteSpace=wrap;html=1;" vertex="1" parent="1">
          <mxGeometry x="520" y="230" width="120" height="60" as="geometry" />
        </mxCell>
        <mxCell id="Vm5Op388WG7nK8URNqsD-2" style="edgeStyle=orthogonalEdgeStyle;rounded=0;orthogonalLoop=1;jettySize=auto;html=1;exitX=0.75;exitY=1;exitDx=0;exitDy=0;entryX=0.167;entryY=0.017;entryDx=0;entryDy=0;entryPerimeter=0;" edge="1" parent="1" source="q2FhE0J3s6sLXgJ5Zwis-3" target="q2FhE0J3s6sLXgJ5Zwis-7">
          <mxGeometry relative="1" as="geometry" />
        </mxCell>
        <mxCell id="Vm5Op388WG7nK8URNqsD-3" style="edgeStyle=orthogonalEdgeStyle;rounded=0;orthogonalLoop=1;jettySize=auto;html=1;exitX=0.25;exitY=1;exitDx=0;exitDy=0;entryX=0.833;entryY=0.033;entryDx=0;entryDy=0;entryPerimeter=0;" edge="1" parent="1" source="q2FhE0J3s6sLXgJ5Zwis-3" target="q2FhE0J3s6sLXgJ5Zwis-6">
          <mxGeometry relative="1" as="geometry" />
        </mxCell>
        <mxCell id="NR5nARvkgr26INFjKaU3-6" style="edgeStyle=orthogonalEdgeStyle;rounded=0;orthogonalLoop=1;jettySize=auto;html=1;exitX=0.25;exitY=1;exitDx=0;exitDy=0;entryX=0.75;entryY=0;entryDx=0;entryDy=0;" edge="1" parent="1" source="HUoiYBO2rbF4VHzIbusj-4" target="NR5nARvkgr26INFjKaU3-2">
          <mxGeometry relative="1" as="geometry" />
        </mxCell>
        <mxCell id="NR5nARvkgr26INFjKaU3-9" style="edgeStyle=orthogonalEdgeStyle;rounded=0;orthogonalLoop=1;jettySize=auto;html=1;exitX=0.75;exitY=1;exitDx=0;exitDy=0;entryX=0.25;entryY=0;entryDx=0;entryDy=0;" edge="1" parent="1" source="HUoiYBO2rbF4VHzIbusj-4" target="NR5nARvkgr26INFjKaU3-5">
          <mxGeometry relative="1" as="geometry" />
        </mxCell>
        <mxCell id="NR5nARvkgr26INFjKaU3-10" style="edgeStyle=orthogonalEdgeStyle;rounded=0;orthogonalLoop=1;jettySize=auto;html=1;exitX=0.5;exitY=1;exitDx=0;exitDy=0;entryX=0.5;entryY=0;entryDx=0;entryDy=0;" edge="1" parent="1" source="HUoiYBO2rbF4VHzIbusj-4" target="NR5nARvkgr26INFjKaU3-3">
          <mxGeometry relative="1" as="geometry" />
        </mxCell>
        <mxCell id="HUoiYBO2rbF4VHzIbusj-4" value="cadastrar um novo corte" style="rounded=1;whiteSpace=wrap;html=1;" vertex="1" parent="1">
          <mxGeometry x="-10" y="320" width="120" height="60" as="geometry" />
        </mxCell>
        <mxCell id="NR5nARvkgr26INFjKaU3-2" value="" style="rounded=1;whiteSpace=wrap;html=1;" vertex="1" parent="1">
          <mxGeometry x="-150" y="440" width="120" height="60" as="geometry" />
        </mxCell>
        <mxCell id="NR5nARvkgr26INFjKaU3-3" value="" style="rounded=1;whiteSpace=wrap;html=1;" vertex="1" parent="1">
          <mxGeometry x="-20" y="440" width="120" height="60" as="geometry" />
        </mxCell>
        <mxCell id="NR5nARvkgr26INFjKaU3-5" value="" style="rounded=1;whiteSpace=wrap;html=1;" vertex="1" parent="1">
          <mxGeometry x="110" y="440" width="120" height="60" as="geometry" />
        </mxCell>
      </root>
    </mxGraphModel>
  </diagram>
</mxfile>
